<mxfile host="app.diagrams.net" modified="2020-10-29T12:47:42.152Z" agent="5.0 (Windows)" etag="OCKLMg46QbG28Q2RNZ9j" version="13.8.5" type="github">
  <diagram id="Y8RW_nMM7FUyLUE6UGEh" name="Page-1">
    <mxGraphModel dx="1446" dy="1983" grid="1" gridSize="10" guides="1" tooltips="1" connect="1" arrows="1" fold="1" page="1" pageScale="1" pageWidth="850" pageHeight="1100" math="0" shadow="0">
      <root>
        <mxCell id="0" />
        <mxCell id="1" parent="0" />
        <mxCell id="-_0p66DI5QI1zj4v-Ik1-10" value="Farmaceut" style="shape=actor;whiteSpace=wrap;html=1;rounded=1;shadow=1;labelPosition=center;verticalLabelPosition=bottom;align=center;verticalAlign=top;fillColor=#ffe6cc;strokeColor=#d79b00;" parent="1" vertex="1">
          <mxGeometry x="10" y="-980" width="40" height="60" as="geometry" />
        </mxCell>
        <mxCell id="-_0p66DI5QI1zj4v-Ik1-12" value="FORS" style="whiteSpace=wrap;html=1;fillColor=#bac8d3;strokeColor=#23445d;rounded=1;" parent="1" vertex="1">
          <mxGeometry x="560" y="-480" width="700" height="20" as="geometry" />
        </mxCell>
        <mxCell id="Q4kJV671iwrY0cKDhgk4-12" style="edgeStyle=orthogonalEdgeStyle;rounded=0;orthogonalLoop=1;jettySize=auto;html=1;exitX=1;exitY=0.5;exitDx=0;exitDy=0;" edge="1" parent="1" source="-_0p66DI5QI1zj4v-Ik1-9" target="Q4kJV671iwrY0cKDhgk4-13">
          <mxGeometry relative="1" as="geometry">
            <mxPoint x="280" y="-830" as="sourcePoint" />
          </mxGeometry>
        </mxCell>
        <mxCell id="Q4kJV671iwrY0cKDhgk4-1" value="VARA" style="whiteSpace=wrap;html=1;fillColor=#fff2cc;strokeColor=#d6b656;rounded=1;" vertex="1" parent="1">
          <mxGeometry x="560" y="-570" width="190" height="20" as="geometry" />
        </mxCell>
        <mxCell id="Q4kJV671iwrY0cKDhgk4-2" value="ARKO" style="whiteSpace=wrap;html=1;fillColor=#dae8fc;strokeColor=#6c8ebf;rounded=1;" vertex="1" parent="1">
          <mxGeometry x="560" y="-510" width="700" height="20" as="geometry" />
        </mxCell>
        <mxCell id="Q4kJV671iwrY0cKDhgk4-3" value="Nationella läkemedelslistan (NLL)" style="whiteSpace=wrap;html=1;fillColor=#d0cee2;strokeColor=#56517e;rounded=1;" vertex="1" parent="1">
          <mxGeometry x="80" y="-540" width="1270" height="20" as="geometry" />
        </mxCell>
        <mxCell id="Q4kJV671iwrY0cKDhgk4-5" value="PRIS/HKDB" style="whiteSpace=wrap;html=1;fillColor=#dae8fc;strokeColor=#6c8ebf;rounded=1;" vertex="1" parent="1">
          <mxGeometry x="800" y="-570" width="910" height="20" as="geometry" />
        </mxCell>
        <mxCell id="Q4kJV671iwrY0cKDhgk4-8" value="RIF" style="whiteSpace=wrap;html=1;fillColor=#dae8fc;strokeColor=#6c8ebf;rounded=1;" vertex="1" parent="1">
          <mxGeometry x="320" y="-510" width="200" height="20" as="geometry" />
        </mxCell>
        <mxCell id="Q4kJV671iwrY0cKDhgk4-10" value="Apotekspersonal" style="shape=actor;whiteSpace=wrap;html=1;rounded=1;shadow=1;labelPosition=center;verticalLabelPosition=bottom;align=center;verticalAlign=top;fillColor=#b0e3e6;strokeColor=#0e8088;" vertex="1" parent="1">
          <mxGeometry x="100" y="-980" width="40" height="60" as="geometry" />
        </mxCell>
        <UserObject label="FOLK" tooltip="Folkbokförda personer (FOLK)" id="Q4kJV671iwrY0cKDhgk4-20">
          <mxCell style="whiteSpace=wrap;html=1;fillColor=#dae8fc;strokeColor=#6c8ebf;rounded=1;" vertex="1" parent="1">
            <mxGeometry x="80" y="-570" width="440" height="20" as="geometry" />
          </mxCell>
        </UserObject>
        <mxCell id="Q4kJV671iwrY0cKDhgk4-29" value="" style="endArrow=classic;html=1;exitX=0.25;exitY=1;exitDx=0;exitDy=0;horizontal=0;labelPosition=right;verticalLabelPosition=middle;align=left;verticalAlign=middle;" edge="1" parent="1">
          <mxGeometry x="0.9375" relative="1" as="geometry">
            <mxPoint x="400" y="-770" as="sourcePoint" />
            <mxPoint x="400" y="-540" as="targetPoint" />
            <mxPoint as="offset" />
          </mxGeometry>
        </mxCell>
        <mxCell id="Q4kJV671iwrY0cKDhgk4-31" value="" style="endArrow=classic;html=1;exitX=0.5;exitY=1;exitDx=0;exitDy=0;horizontal=0;align=left;labelPosition=right;verticalLabelPosition=middle;verticalAlign=middle;entryX=0.594;entryY=-0.14;entryDx=0;entryDy=0;entryPerimeter=0;" edge="1" parent="1" target="Q4kJV671iwrY0cKDhgk4-8">
          <mxGeometry x="0.8" relative="1" as="geometry">
            <mxPoint x="440" y="-770" as="sourcePoint" />
            <mxPoint x="438" y="-570" as="targetPoint" />
            <mxPoint as="offset" />
          </mxGeometry>
        </mxCell>
        <mxCell id="Q4kJV671iwrY0cKDhgk4-41" value="" style="endArrow=classic;html=1;entryX=0.113;entryY=-0.036;entryDx=0;entryDy=0;entryPerimeter=0;" edge="1" parent="1" target="Q4kJV671iwrY0cKDhgk4-2">
          <mxGeometry relative="1" as="geometry">
            <mxPoint x="639" y="-680" as="sourcePoint" />
            <mxPoint x="638" y="-410" as="targetPoint" />
          </mxGeometry>
        </mxCell>
        <mxCell id="Q4kJV671iwrY0cKDhgk4-45" value="" style="endArrow=classic;html=1;horizontal=0;" edge="1" parent="1">
          <mxGeometry x="0.6111" y="-1" relative="1" as="geometry">
            <mxPoint x="677" y="-680" as="sourcePoint" />
            <mxPoint x="677" y="-480" as="targetPoint" />
            <mxPoint as="offset" />
          </mxGeometry>
        </mxCell>
        <mxCell id="Q4kJV671iwrY0cKDhgk4-47" value="" style="endArrow=classic;html=1;exitX=0.5;exitY=1;exitDx=0;exitDy=0;" edge="1" parent="1">
          <mxGeometry relative="1" as="geometry">
            <mxPoint x="842.5799999999999" y="-770.0000000000001" as="sourcePoint" />
            <mxPoint x="840" y="-570" as="targetPoint" />
          </mxGeometry>
        </mxCell>
        <mxCell id="Q4kJV671iwrY0cKDhgk4-49" value="" style="endArrow=classic;html=1;exitX=0.5;exitY=1;exitDx=0;exitDy=0;" edge="1" parent="1">
          <mxGeometry relative="1" as="geometry">
            <mxPoint x="882.5799999999999" y="-770.0000000000001" as="sourcePoint" />
            <mxPoint x="880" y="-570" as="targetPoint" />
          </mxGeometry>
        </mxCell>
        <mxCell id="Q4kJV671iwrY0cKDhgk4-51" value="" style="endArrow=classic;html=1;exitX=0.5;exitY=1;exitDx=0;exitDy=0;" edge="1" parent="1">
          <mxGeometry relative="1" as="geometry">
            <mxPoint x="922.5699999999999" y="-770" as="sourcePoint" />
            <mxPoint x="923" y="-571" as="targetPoint" />
          </mxGeometry>
        </mxCell>
        <mxCell id="Q4kJV671iwrY0cKDhgk4-56" value="" style="endArrow=classic;html=1;exitX=0.5;exitY=1;exitDx=0;exitDy=0;entryX=0.687;entryY=0.084;entryDx=0;entryDy=0;entryPerimeter=0;" edge="1" parent="1">
          <mxGeometry relative="1" as="geometry">
            <mxPoint x="1062.58" y="-770.0000000000001" as="sourcePoint" />
            <mxPoint x="1060.9" y="-478.32000000000016" as="targetPoint" />
          </mxGeometry>
        </mxCell>
        <mxCell id="Q4kJV671iwrY0cKDhgk4-58" value="" style="endArrow=classic;html=1;exitX=0.5;exitY=1;exitDx=0;exitDy=0;entryX=0.744;entryY=-0.14;entryDx=0;entryDy=0;entryPerimeter=0;" edge="1" parent="1">
          <mxGeometry relative="1" as="geometry">
            <mxPoint x="1102.58" y="-770.0000000000001" as="sourcePoint" />
            <mxPoint x="1100.8" y="-512.8000000000002" as="targetPoint" />
          </mxGeometry>
        </mxCell>
        <mxCell id="Q4kJV671iwrY0cKDhgk4-60" value="" style="endArrow=classic;html=1;exitX=0.5;exitY=1;exitDx=0;exitDy=0;entryX=0.69;entryY=0.033;entryDx=0;entryDy=0;entryPerimeter=0;" edge="1" parent="1">
          <mxGeometry relative="1" as="geometry">
            <mxPoint x="1137.57" y="-770.0000000000001" as="sourcePoint" />
            <mxPoint x="1137.4" y="-569.3400000000001" as="targetPoint" />
          </mxGeometry>
        </mxCell>
        <mxCell id="Q4kJV671iwrY0cKDhgk4-62" value="" style="endArrow=classic;html=1;exitX=0.5;exitY=1;exitDx=0;exitDy=0;" edge="1" parent="1">
          <mxGeometry relative="1" as="geometry">
            <mxPoint x="1172.57" y="-770" as="sourcePoint" />
            <mxPoint x="1170" y="-570" as="targetPoint" />
          </mxGeometry>
        </mxCell>
        <mxCell id="Q4kJV671iwrY0cKDhgk4-64" value="" style="endArrow=classic;html=1;" edge="1" parent="1">
          <mxGeometry relative="1" as="geometry">
            <mxPoint x="1200" y="-638" as="sourcePoint" />
            <mxPoint x="1200" y="-540" as="targetPoint" />
          </mxGeometry>
        </mxCell>
        <mxCell id="Q4kJV671iwrY0cKDhgk4-153" style="edgeStyle=orthogonalEdgeStyle;rounded=1;sketch=0;orthogonalLoop=1;jettySize=auto;html=1;exitX=1;exitY=0.5;exitDx=0;exitDy=0;entryX=0;entryY=0.5;entryDx=0;entryDy=0;endArrow=classic;endFill=1;strokeColor=#000000;fontSize=12;align=center;" edge="1" parent="1" source="Q4kJV671iwrY0cKDhgk4-66" target="Q4kJV671iwrY0cKDhgk4-147">
          <mxGeometry relative="1" as="geometry">
            <Array as="points">
              <mxPoint x="1740" y="-760" />
              <mxPoint x="1740" y="-970" />
              <mxPoint x="1250" y="-970" />
              <mxPoint x="1250" y="-865" />
            </Array>
          </mxGeometry>
        </mxCell>
        <mxCell id="Q4kJV671iwrY0cKDhgk4-66" value="Betala/Leverera varor" style="shape=step;perimeter=stepPerimeter;whiteSpace=wrap;html=1;fixedSize=1;rounded=1;shadow=1;fontStyle=1;verticalAlign=top;" vertex="1" parent="1">
          <mxGeometry x="1520" y="-880" width="200" height="240" as="geometry" />
        </mxCell>
        <mxCell id="Q4kJV671iwrY0cKDhgk4-79" value="Korrigera recept" style="shape=step;perimeter=stepPerimeter;whiteSpace=wrap;html=1;fixedSize=1;rounded=1;shadow=1;fontStyle=1" vertex="1" parent="1">
          <mxGeometry x="720" y="-1060" width="160" height="40" as="geometry" />
        </mxCell>
        <mxCell id="Q4kJV671iwrY0cKDhgk4-92" value="" style="endArrow=classic;html=1;strokeColor=#000000;exitX=1;exitY=0.5;exitDx=0;exitDy=0;entryX=0;entryY=0.5;entryDx=0;entryDy=0;" edge="1" parent="1" source="Q4kJV671iwrY0cKDhgk4-13" target="Q4kJV671iwrY0cKDhgk4-36">
          <mxGeometry width="50" height="50" relative="1" as="geometry">
            <mxPoint x="610" y="-580" as="sourcePoint" />
            <mxPoint x="660" y="-630" as="targetPoint" />
          </mxGeometry>
        </mxCell>
        <mxCell id="Q4kJV671iwrY0cKDhgk4-112" value="" style="endArrow=classic;html=1;exitX=0.5;exitY=1;exitDx=0;exitDy=0;entryX=0.801;entryY=0.016;entryDx=0;entryDy=0;entryPerimeter=0;horizontal=0;align=left;labelPosition=right;verticalLabelPosition=middle;verticalAlign=middle;" edge="1" parent="1" target="Q4kJV671iwrY0cKDhgk4-113">
          <mxGeometry x="0.727" relative="1" as="geometry">
            <mxPoint x="481.78999999999996" y="-769" as="sourcePoint" />
            <mxPoint x="480" y="-410" as="targetPoint" />
            <mxPoint as="offset" />
          </mxGeometry>
        </mxCell>
        <mxCell id="-_0p66DI5QI1zj4v-Ik1-9" value="Välj recept" style="shape=step;perimeter=stepPerimeter;whiteSpace=wrap;html=1;fixedSize=1;rounded=1;shadow=1;fontStyle=1;horizontal=1;verticalAlign=top;" parent="1" vertex="1">
          <mxGeometry x="320" y="-860" width="210" height="200" as="geometry" />
        </mxCell>
        <mxCell id="Q4kJV671iwrY0cKDhgk4-108" value="&lt;a href=&quot;data:page/id,Y8RW_nMM7FUyLUE6UGEh&quot;&gt;Hämta patientinformation&lt;/a&gt;" style="rounded=1;whiteSpace=wrap;html=1;shadow=1;fontSize=12;fillColor=#fad9d5;strokeColor=#ae4132;" vertex="1" parent="1">
          <mxGeometry x="350" y="-830" width="145" height="20" as="geometry" />
        </mxCell>
        <mxCell id="Q4kJV671iwrY0cKDhgk4-109" value="Hämta förskrivningar och uttag" style="rounded=1;whiteSpace=wrap;html=1;shadow=1;fontSize=12;fillColor=#fad9d5;strokeColor=#ae4132;" vertex="1" parent="1">
          <mxGeometry x="350" y="-800" width="145" height="40" as="geometry" />
        </mxCell>
        <mxCell id="Q4kJV671iwrY0cKDhgk4-110" value="Kontrollera utökad förskrivarbehörighet" style="rounded=1;whiteSpace=wrap;html=1;shadow=1;fillColor=#b0e3e6;strokeColor=#0e8088;" vertex="1" parent="1">
          <mxGeometry x="350" y="-750" width="145" height="40" as="geometry" />
        </mxCell>
        <mxCell id="Q4kJV671iwrY0cKDhgk4-111" value="Kontroll mot EES" style="rounded=1;whiteSpace=wrap;html=1;shadow=1;fillColor=#b0e3e6;strokeColor=#0e8088;" vertex="1" parent="1">
          <mxGeometry x="350" y="-700" width="145" height="20" as="geometry" />
        </mxCell>
        <mxCell id="Q4kJV671iwrY0cKDhgk4-113" value="EES" style="whiteSpace=wrap;html=1;fillColor=#dae8fc;strokeColor=#6c8ebf;rounded=1;" vertex="1" parent="1">
          <mxGeometry x="320" y="-480" width="200" height="20" as="geometry" />
        </mxCell>
        <mxCell id="Q4kJV671iwrY0cKDhgk4-114" value="" style="endArrow=classic;html=1;entryX=0.201;entryY=-0.071;entryDx=0;entryDy=0;entryPerimeter=0;" edge="1" parent="1" target="Q4kJV671iwrY0cKDhgk4-1">
          <mxGeometry relative="1" as="geometry">
            <mxPoint x="598" y="-680" as="sourcePoint" />
            <mxPoint x="597" y="-570" as="targetPoint" />
          </mxGeometry>
        </mxCell>
        <mxCell id="Q4kJV671iwrY0cKDhgk4-13" value="Välj/byt vara" style="shape=step;perimeter=stepPerimeter;whiteSpace=wrap;html=1;fixedSize=1;rounded=1;shadow=1;fontStyle=1;verticalAlign=top;" vertex="1" parent="1">
          <mxGeometry x="560" y="-860" width="200" height="200" as="geometry" />
        </mxCell>
        <mxCell id="Q4kJV671iwrY0cKDhgk4-105" value="Hämta substituion" style="rounded=1;whiteSpace=wrap;html=1;shadow=1;fontSize=12;fillColor=#b0e3e6;strokeColor=#0e8088;" vertex="1" parent="1">
          <mxGeometry x="588" y="-810" width="142" height="20" as="geometry" />
        </mxCell>
        <mxCell id="Q4kJV671iwrY0cKDhgk4-106" value="Hämta information om arbetsplats" style="rounded=1;whiteSpace=wrap;html=1;shadow=1;fillColor=#b0e3e6;strokeColor=#0e8088;" vertex="1" parent="1">
          <mxGeometry x="588" y="-780" width="142" height="40" as="geometry" />
        </mxCell>
        <mxCell id="Q4kJV671iwrY0cKDhgk4-107" value="Hämta information om förskrivare" style="rounded=1;whiteSpace=wrap;html=1;shadow=1;fillColor=#b0e3e6;strokeColor=#0e8088;" vertex="1" parent="1">
          <mxGeometry x="588" y="-730" width="142" height="40" as="geometry" />
        </mxCell>
        <mxCell id="Q4kJV671iwrY0cKDhgk4-123" style="edgeStyle=orthogonalEdgeStyle;rounded=0;sketch=0;orthogonalLoop=1;jettySize=auto;html=1;exitX=1;exitY=0.5;exitDx=0;exitDy=0;endArrow=classic;endFill=1;strokeColor=#000000;fontSize=12;align=center;" edge="1" parent="1" source="Q4kJV671iwrY0cKDhgk4-36" target="Q4kJV671iwrY0cKDhgk4-53">
          <mxGeometry relative="1" as="geometry" />
        </mxCell>
        <mxCell id="Q4kJV671iwrY0cKDhgk4-36" value="Beräkna pris" style="shape=step;perimeter=stepPerimeter;whiteSpace=wrap;html=1;fixedSize=1;rounded=1;shadow=1;fontStyle=1;horizontal=1;verticalAlign=top;" vertex="1" parent="1">
          <mxGeometry x="800" y="-860" width="200" height="200" as="geometry" />
        </mxCell>
        <mxCell id="Q4kJV671iwrY0cKDhgk4-115" value="Hämta information från HKDB" style="rounded=1;whiteSpace=wrap;html=1;shadow=1;fillColor=#b0e3e6;strokeColor=#0e8088;" vertex="1" parent="1">
          <mxGeometry x="829" y="-830" width="142" height="40" as="geometry" />
        </mxCell>
        <mxCell id="Q4kJV671iwrY0cKDhgk4-116" value="Kontrollera förmån" style="rounded=1;whiteSpace=wrap;html=1;shadow=1;fillColor=#b0e3e6;strokeColor=#0e8088;" vertex="1" parent="1">
          <mxGeometry x="829" y="-780" width="142" height="20" as="geometry" />
        </mxCell>
        <mxCell id="Q4kJV671iwrY0cKDhgk4-117" value="Prisfråga" style="rounded=1;whiteSpace=wrap;html=1;shadow=1;fillColor=#b0e3e6;strokeColor=#0e8088;" vertex="1" parent="1">
          <mxGeometry x="829" y="-750" width="142" height="20" as="geometry" />
        </mxCell>
        <mxCell id="Q4kJV671iwrY0cKDhgk4-135" style="edgeStyle=orthogonalEdgeStyle;rounded=0;sketch=0;orthogonalLoop=1;jettySize=auto;html=1;exitX=1;exitY=0.5;exitDx=0;exitDy=0;entryX=0;entryY=0.5;entryDx=0;entryDy=0;endArrow=classic;endFill=1;strokeColor=#000000;fontSize=12;align=center;" edge="1" parent="1" source="Q4kJV671iwrY0cKDhgk4-53" target="Q4kJV671iwrY0cKDhgk4-66">
          <mxGeometry relative="1" as="geometry">
            <mxPoint x="1480.0000000000002" y="-760.0000000000002" as="sourcePoint" />
          </mxGeometry>
        </mxCell>
        <mxCell id="Q4kJV671iwrY0cKDhgk4-53" value="Godkänna expedition" style="shape=step;perimeter=stepPerimeter;whiteSpace=wrap;html=1;fixedSize=1;rounded=1;shadow=1;fontStyle=1;verticalAlign=top;" vertex="1" parent="1">
          <mxGeometry x="1040" y="-880" width="200" height="240" as="geometry" />
        </mxCell>
        <mxCell id="Q4kJV671iwrY0cKDhgk4-118" value="Hämta information om förskrivare" style="rounded=1;whiteSpace=wrap;html=1;shadow=1;fillColor=#b0e3e6;strokeColor=#0e8088;" vertex="1" parent="1">
          <mxGeometry x="1069" y="-850" width="142" height="40" as="geometry" />
        </mxCell>
        <mxCell id="Q4kJV671iwrY0cKDhgk4-119" value="Hämta information om arbetsplats" style="rounded=1;whiteSpace=wrap;html=1;shadow=1;fillColor=#b0e3e6;strokeColor=#0e8088;" vertex="1" parent="1">
          <mxGeometry x="1069" y="-800" width="142" height="40" as="geometry" />
        </mxCell>
        <mxCell id="Q4kJV671iwrY0cKDhgk4-120" value="Hämta kontoinformation från HKDB" style="rounded=1;whiteSpace=wrap;html=1;shadow=1;fillColor=#b0e3e6;strokeColor=#0e8088;" vertex="1" parent="1">
          <mxGeometry x="1069" y="-750" width="142" height="40" as="geometry" />
        </mxCell>
        <mxCell id="Q4kJV671iwrY0cKDhgk4-121" value="Registrera uttag" style="rounded=1;whiteSpace=wrap;html=1;shadow=1;fontSize=12;fillColor=#fad9d5;strokeColor=#ae4132;" vertex="1" parent="1">
          <mxGeometry x="1069" y="-700" width="141" height="40" as="geometry" />
        </mxCell>
        <mxCell id="Q4kJV671iwrY0cKDhgk4-130" value="Hämta kontoinformation från HKDB" style="rounded=1;whiteSpace=wrap;html=1;shadow=1;fillColor=#b0e3e6;strokeColor=#0e8088;" vertex="1" parent="1">
          <mxGeometry x="1549" y="-850" width="142" height="40" as="geometry" />
        </mxCell>
        <mxCell id="Q4kJV671iwrY0cKDhgk4-131" value="Prisberäkna" style="rounded=1;whiteSpace=wrap;html=1;shadow=1;fillColor=#b0e3e6;strokeColor=#0e8088;" vertex="1" parent="1">
          <mxGeometry x="1549" y="-800" width="142" height="20" as="geometry" />
        </mxCell>
        <mxCell id="Q4kJV671iwrY0cKDhgk4-132" value="Registrera HKDB-transaktion" style="rounded=1;whiteSpace=wrap;html=1;shadow=1;fillColor=#b0e3e6;strokeColor=#0e8088;" vertex="1" parent="1">
          <mxGeometry x="1549" y="-770" width="142" height="40" as="geometry" />
        </mxCell>
        <mxCell id="Q4kJV671iwrY0cKDhgk4-133" value="Uppdatera försäljningstransaktion" style="rounded=1;whiteSpace=wrap;html=1;shadow=1;fillColor=#b0e3e6;strokeColor=#0e8088;" vertex="1" parent="1">
          <mxGeometry x="1549" y="-720" width="142" height="40" as="geometry" />
        </mxCell>
        <mxCell id="Q4kJV671iwrY0cKDhgk4-136" value="" style="endArrow=classic;html=1;" edge="1" parent="1">
          <mxGeometry relative="1" as="geometry">
            <mxPoint x="1560" y="-640" as="sourcePoint" />
            <mxPoint x="1560.0000000000002" y="-570" as="targetPoint" />
          </mxGeometry>
        </mxCell>
        <mxCell id="Q4kJV671iwrY0cKDhgk4-137" value="" style="endArrow=classic;html=1;" edge="1" parent="1">
          <mxGeometry relative="1" as="geometry">
            <mxPoint x="1600.0000000000002" y="-640" as="sourcePoint" />
            <mxPoint x="1600.0000000000002" y="-570" as="targetPoint" />
          </mxGeometry>
        </mxCell>
        <mxCell id="Q4kJV671iwrY0cKDhgk4-138" value="" style="endArrow=classic;html=1;" edge="1" parent="1">
          <mxGeometry relative="1" as="geometry">
            <mxPoint x="1640.0000000000002" y="-640" as="sourcePoint" />
            <mxPoint x="1640.0000000000002" y="-570" as="targetPoint" />
          </mxGeometry>
        </mxCell>
        <mxCell id="Q4kJV671iwrY0cKDhgk4-139" value="FOTA" style="whiteSpace=wrap;html=1;fillColor=#fff2cc;strokeColor=#d6b656;rounded=1;" vertex="1" parent="1">
          <mxGeometry x="1360" y="-540" width="350" height="20" as="geometry" />
        </mxCell>
        <mxCell id="Q4kJV671iwrY0cKDhgk4-140" value="" style="endArrow=classic;html=1;" edge="1" parent="1">
          <mxGeometry relative="1" as="geometry">
            <mxPoint x="1680.0000000000002" y="-640" as="sourcePoint" />
            <mxPoint x="1680.0000000000002" y="-542" as="targetPoint" />
          </mxGeometry>
        </mxCell>
        <mxCell id="Q4kJV671iwrY0cKDhgk4-141" value="Makulera recept" style="shape=step;perimeter=stepPerimeter;whiteSpace=wrap;html=1;fixedSize=1;rounded=1;shadow=1;fontStyle=1" vertex="1" parent="1">
          <mxGeometry x="880" y="-1060" width="160" height="40" as="geometry" />
        </mxCell>
        <mxCell id="Q4kJV671iwrY0cKDhgk4-142" value="&lt;div&gt;HKDB utskrift&lt;/div&gt;&lt;div&gt; via apotek&lt;/div&gt;" style="shape=step;perimeter=stepPerimeter;whiteSpace=wrap;html=1;fixedSize=1;rounded=1;shadow=1;fontStyle=1" vertex="1" parent="1">
          <mxGeometry x="1040" y="-1060" width="160" height="40" as="geometry" />
        </mxCell>
        <mxCell id="Q4kJV671iwrY0cKDhgk4-143" value="" style="ellipse;whiteSpace=wrap;html=1;aspect=fixed;rounded=1;shadow=1;fontSize=12;" vertex="1" parent="1">
          <mxGeometry x="1760" y="-780" width="40" height="40" as="geometry" />
        </mxCell>
        <mxCell id="Q4kJV671iwrY0cKDhgk4-144" value="" style="endArrow=classic;html=1;strokeColor=#000000;fontSize=12;align=center;entryX=0;entryY=0.5;entryDx=0;entryDy=0;exitX=1;exitY=0.5;exitDx=0;exitDy=0;" edge="1" parent="1" source="Q4kJV671iwrY0cKDhgk4-66" target="Q4kJV671iwrY0cKDhgk4-143">
          <mxGeometry width="50" height="50" relative="1" as="geometry">
            <mxPoint x="1630" y="-570" as="sourcePoint" />
            <mxPoint x="1680" y="-620" as="targetPoint" />
          </mxGeometry>
        </mxCell>
        <mxCell id="Q4kJV671iwrY0cKDhgk4-145" value="Anrop FHIR-resurs" style="rounded=1;whiteSpace=wrap;html=1;shadow=1;fontSize=12;fillColor=#fad9d5;strokeColor=#ae4132;" vertex="1" parent="1">
          <mxGeometry x="180" y="-970" width="145" height="20" as="geometry" />
        </mxCell>
        <mxCell id="Q4kJV671iwrY0cKDhgk4-146" value="Anrop SOAP-tjänst" style="rounded=1;whiteSpace=wrap;html=1;shadow=1;fontSize=12;fillColor=#b0e3e6;strokeColor=#0e8088;" vertex="1" parent="1">
          <mxGeometry x="180" y="-940" width="145" height="20" as="geometry" />
        </mxCell>
        <mxCell id="Q4kJV671iwrY0cKDhgk4-147" value="Backa expedition" style="shape=step;perimeter=stepPerimeter;whiteSpace=wrap;html=1;fixedSize=1;rounded=1;shadow=1;fontStyle=1;verticalAlign=top;" vertex="1" parent="1">
          <mxGeometry x="1270" y="-950" width="200" height="170" as="geometry" />
        </mxCell>
        <mxCell id="Q4kJV671iwrY0cKDhgk4-148" value="Kreditera försäljningstransaktion" style="rounded=1;whiteSpace=wrap;html=1;shadow=1;fillColor=#b0e3e6;strokeColor=#0e8088;" vertex="1" parent="1">
          <mxGeometry x="1299" y="-890" width="142" height="40" as="geometry" />
        </mxCell>
        <mxCell id="Q4kJV671iwrY0cKDhgk4-150" value="Backa HKDB-transaktion" style="rounded=1;whiteSpace=wrap;html=1;shadow=1;fillColor=#b0e3e6;strokeColor=#0e8088;" vertex="1" parent="1">
          <mxGeometry x="1299" y="-840" width="142" height="40" as="geometry" />
        </mxCell>
        <mxCell id="Q4kJV671iwrY0cKDhgk4-151" value="Backa uttag" style="rounded=1;whiteSpace=wrap;html=1;shadow=1;fillColor=#fad9d5;strokeColor=#ae4132;" vertex="1" parent="1">
          <mxGeometry x="1299" y="-920" width="142" height="20" as="geometry" />
        </mxCell>
        <mxCell id="Q4kJV671iwrY0cKDhgk4-152" value="" style="endArrow=classic;html=1;strokeColor=#000000;fontSize=12;align=center;exitX=1;exitY=0.5;exitDx=0;exitDy=0;" edge="1" parent="1" source="Q4kJV671iwrY0cKDhgk4-147">
          <mxGeometry width="50" height="50" relative="1" as="geometry">
            <mxPoint x="1270" y="-790" as="sourcePoint" />
            <mxPoint x="1540" y="-760" as="targetPoint" />
            <Array as="points">
              <mxPoint x="1500" y="-865" />
              <mxPoint x="1500" y="-760" />
            </Array>
          </mxGeometry>
        </mxCell>
        <mxCell id="Q4kJV671iwrY0cKDhgk4-155" value="" style="endArrow=classic;html=1;exitX=0.25;exitY=1;exitDx=0;exitDy=0;" edge="1" parent="1" source="Q4kJV671iwrY0cKDhgk4-147">
          <mxGeometry relative="1" as="geometry">
            <mxPoint x="1320" y="-640" as="sourcePoint" />
            <mxPoint x="1320" y="-542" as="targetPoint" />
          </mxGeometry>
        </mxCell>
        <mxCell id="Q4kJV671iwrY0cKDhgk4-156" value="" style="endArrow=classic;html=1;exitX=0.451;exitY=1.006;exitDx=0;exitDy=0;exitPerimeter=0;entryX=0.115;entryY=-0.019;entryDx=0;entryDy=0;entryPerimeter=0;" edge="1" parent="1" target="Q4kJV671iwrY0cKDhgk4-139">
          <mxGeometry relative="1" as="geometry">
            <mxPoint x="1400.51" y="-780.0000000000002" as="sourcePoint" />
            <mxPoint x="1400.31" y="-571.02" as="targetPoint" />
          </mxGeometry>
        </mxCell>
        <mxCell id="Q4kJV671iwrY0cKDhgk4-157" value="" style="endArrow=classic;html=1;" edge="1" parent="1">
          <mxGeometry relative="1" as="geometry">
            <mxPoint x="1440.31" y="-779.02" as="sourcePoint" />
            <mxPoint x="1440.31" y="-571.02" as="targetPoint" />
          </mxGeometry>
        </mxCell>
        <mxCell id="Q4kJV671iwrY0cKDhgk4-158" value="Skriv ut receptoriginal" style="shape=step;perimeter=stepPerimeter;whiteSpace=wrap;html=1;fixedSize=1;rounded=1;shadow=1;fontStyle=1" vertex="1" parent="1">
          <mxGeometry x="1200" y="-1060" width="160" height="40" as="geometry" />
        </mxCell>
        <mxCell id="Q4kJV671iwrY0cKDhgk4-159" value="&lt;h1&gt;Verksamhetsflöde - Expediering icke DOS-patient&lt;br&gt;&lt;/h1&gt;&lt;p&gt;Lorem ipsum dolor sit amet, consectetur adipisicing elit, sed do eiusmod tempor incididunt ut labore et dolore magna aliqua.&lt;/p&gt;" style="text;html=1;strokeColor=none;fillColor=none;spacing=5;spacingTop=-20;whiteSpace=wrap;overflow=hidden;rounded=0;shadow=1;fontSize=12;" vertex="1" parent="1">
          <mxGeometry y="-1090" width="600" height="120" as="geometry" />
        </mxCell>
        <mxCell id="Q4kJV671iwrY0cKDhgk4-160" value="&lt;b&gt;Stödprocesser&lt;/b&gt;" style="text;html=1;strokeColor=none;fillColor=none;align=left;verticalAlign=middle;whiteSpace=wrap;rounded=0;shadow=1;fontSize=12;" vertex="1" parent="1">
          <mxGeometry x="720" y="-1090" width="219" height="20" as="geometry" />
        </mxCell>
        <mxCell id="Q4kJV671iwrY0cKDhgk4-176" value="Registrera recept &amp;amp; uttag" style="shape=step;perimeter=stepPerimeter;whiteSpace=wrap;html=1;fixedSize=1;rounded=1;shadow=1;fontStyle=1;horizontal=1;verticalAlign=top;" vertex="1" parent="1">
          <mxGeometry x="70" y="-860" width="210" height="200" as="geometry" />
        </mxCell>
        <mxCell id="Q4kJV671iwrY0cKDhgk4-177" value="&lt;a href=&quot;data:page/id,Y8RW_nMM7FUyLUE6UGEh&quot;&gt;Hämta patientinformation&lt;/a&gt;" style="rounded=1;whiteSpace=wrap;html=1;shadow=1;fontSize=12;fillColor=#fad9d5;strokeColor=#ae4132;" vertex="1" parent="1">
          <mxGeometry x="102.5" y="-800" width="145" height="20" as="geometry" />
        </mxCell>
        <mxCell id="Q4kJV671iwrY0cKDhgk4-178" value="Registrera förskrivning" style="rounded=1;whiteSpace=wrap;html=1;shadow=1;fontSize=12;fillColor=#fad9d5;strokeColor=#ae4132;" vertex="1" parent="1">
          <mxGeometry x="102.5" y="-770" width="145" height="20" as="geometry" />
        </mxCell>
        <mxCell id="Q4kJV671iwrY0cKDhgk4-183" style="edgeStyle=orthogonalEdgeStyle;rounded=1;sketch=0;orthogonalLoop=1;jettySize=auto;html=1;exitX=1;exitY=0.5;exitDx=0;exitDy=0;endArrow=classic;endFill=1;strokeColor=#000000;fontSize=12;align=center;" edge="1" parent="1" source="Q4kJV671iwrY0cKDhgk4-181" target="-_0p66DI5QI1zj4v-Ik1-9">
          <mxGeometry relative="1" as="geometry">
            <mxPoint x="280" y="-890" as="targetPoint" />
            <Array as="points">
              <mxPoint x="60" y="-760" />
              <mxPoint x="60" y="-880" />
              <mxPoint x="300" y="-880" />
              <mxPoint x="300" y="-760" />
            </Array>
          </mxGeometry>
        </mxCell>
        <mxCell id="Q4kJV671iwrY0cKDhgk4-181" value="" style="ellipse;whiteSpace=wrap;html=1;aspect=fixed;rounded=1;shadow=1;fontSize=12;" vertex="1" parent="1">
          <mxGeometry y="-780" width="40" height="40" as="geometry" />
        </mxCell>
        <mxCell id="Q4kJV671iwrY0cKDhgk4-182" value="" style="endArrow=classic;html=1;strokeColor=#000000;fontSize=12;align=center;exitX=1;exitY=0.5;exitDx=0;exitDy=0;" edge="1" parent="1" source="Q4kJV671iwrY0cKDhgk4-176" target="-_0p66DI5QI1zj4v-Ik1-9">
          <mxGeometry width="50" height="50" relative="1" as="geometry">
            <mxPoint x="290" y="-745" as="sourcePoint" />
            <mxPoint x="340" y="-795" as="targetPoint" />
          </mxGeometry>
        </mxCell>
        <mxCell id="Q4kJV671iwrY0cKDhgk4-185" value="" style="endArrow=classic;html=1;strokeColor=#000000;fontSize=12;align=center;entryX=0;entryY=0.5;entryDx=0;entryDy=0;exitX=1;exitY=0.5;exitDx=0;exitDy=0;" edge="1" parent="1" source="Q4kJV671iwrY0cKDhgk4-181" target="Q4kJV671iwrY0cKDhgk4-176">
          <mxGeometry width="50" height="50" relative="1" as="geometry">
            <mxPoint x="-10" y="-670" as="sourcePoint" />
            <mxPoint x="40" y="-720" as="targetPoint" />
          </mxGeometry>
        </mxCell>
        <mxCell id="Q4kJV671iwrY0cKDhgk4-186" value="" style="endArrow=classic;html=1;exitX=0.19;exitY=1;exitDx=0;exitDy=0;horizontal=0;labelPosition=right;verticalLabelPosition=middle;align=left;verticalAlign=middle;exitPerimeter=0;" edge="1" parent="1" source="-_0p66DI5QI1zj4v-Ik1-9">
          <mxGeometry x="0.9375" relative="1" as="geometry">
            <mxPoint x="360" y="-800" as="sourcePoint" />
            <mxPoint x="360" y="-570" as="targetPoint" />
            <mxPoint as="offset" />
          </mxGeometry>
        </mxCell>
        <mxCell id="Q4kJV671iwrY0cKDhgk4-187" value="" style="endArrow=classic;html=1;exitX=0.19;exitY=1;exitDx=0;exitDy=0;horizontal=0;labelPosition=right;verticalLabelPosition=middle;align=left;verticalAlign=middle;exitPerimeter=0;" edge="1" parent="1">
          <mxGeometry x="0.9375" relative="1" as="geometry">
            <mxPoint x="120.00000000000009" y="-660" as="sourcePoint" />
            <mxPoint x="120.1" y="-570" as="targetPoint" />
            <mxPoint as="offset" />
          </mxGeometry>
        </mxCell>
        <mxCell id="Q4kJV671iwrY0cKDhgk4-188" value="" style="endArrow=classic;html=1;horizontal=0;labelPosition=right;verticalLabelPosition=middle;align=left;verticalAlign=middle;" edge="1" parent="1">
          <mxGeometry x="0.9375" relative="1" as="geometry">
            <mxPoint x="160" y="-660" as="sourcePoint" />
            <mxPoint x="160.1" y="-540" as="targetPoint" />
            <mxPoint as="offset" />
          </mxGeometry>
        </mxCell>
        <mxCell id="Q4kJV671iwrY0cKDhgk4-189" value="Registrera uttag" style="rounded=1;whiteSpace=wrap;html=1;shadow=1;fontSize=12;fillColor=#fad9d5;strokeColor=#ae4132;" vertex="1" parent="1">
          <mxGeometry x="102.5" y="-740" width="145" height="20" as="geometry" />
        </mxCell>
      </root>
    </mxGraphModel>
  </diagram>
</mxfile>
